<svg data-v-423bf9ae="" xmlns="http://www.w3.org/2000/svg" viewBox="0 0 365 94" class="iconLeft"><!----><!----><!----><g data-v-423bf9ae="" id="d6b742b9-5199-4a4a-b4ea-b0542c602896" fill="white" transform="matrix(4.545454611134596,0,0,4.545454611134596,104.54654576119711,0.06189579937411338)"><path d="M0.98 14.08L5.78 14.08C8.09 14.08 9.55 13.03 9.55 11.37C9.55 10.09 8.76 9.13 7.53 8.89C8.57 8.60 9.21 7.77 9.21 6.73C9.21 5.24 7.81 4.28 5.61 4.28L0.98 4.28ZM3.46 12.17L3.46 10.00L5.47 10.00C6.40 10.00 6.97 10.40 6.97 11.06C6.97 11.76 6.40 12.17 5.47 12.17ZM3.46 8.20L3.46 6.19L5.47 6.19C6.20 6.19 6.66 6.55 6.66 7.18C6.66 7.81 6.20 8.20 5.47 8.20ZM10.35 10.30C10.35 12.63 12.00 14.17 14.48 14.17C16.94 14.17 18.59 12.63 18.59 10.30C18.59 7.98 16.94 6.45 14.48 6.45C12.00 6.45 10.35 7.98 10.35 10.30ZM12.78 10.33C12.78 9.17 13.47 8.37 14.48 8.37C15.47 8.37 16.16 9.17 16.16 10.33C16.16 11.51 15.47 12.29 14.48 12.29C13.47 12.29 12.78 11.51 12.78 10.33ZM19.26 10.30C19.26 12.63 20.92 14.17 23.39 14.17C25.86 14.17 27.51 12.63 27.51 10.30C27.51 7.98 25.86 6.45 23.39 6.45C20.92 6.45 19.26 7.98 19.26 10.30ZM21.70 10.33C21.70 9.17 22.39 8.37 23.39 8.37C24.39 8.37 25.07 9.17 25.07 10.33C25.07 11.51 24.39 12.29 23.39 12.29C22.39 12.29 21.70 11.51 21.70 10.33ZM28.32 14.08L35.18 14.08L35.18 12.26L31.36 12.26L35.06 7.99L35.06 6.54L28.46 6.54L28.46 8.36L32.03 8.36L28.32 12.63ZM35.94 10.02C35.94 12.22 37.28 13.68 39.19 13.68C40.12 13.68 40.87 13.31 41.36 12.67L41.36 13.47C41.36 14.41 40.66 15.02 39.49 15.02C38.68 15.02 37.84 14.74 37.16 14.27L36.32 15.90C37.17 16.48 38.36 16.90 39.68 16.90C42.11 16.90 43.76 15.54 43.76 13.40L43.76 6.54L41.36 6.54L41.36 7.46C40.85 6.80 40.10 6.44 39.13 6.45C37.24 6.45 35.94 7.88 35.94 10.02ZM38.19 10.09C38.19 9.00 38.84 8.25 39.79 8.25C40.73 8.25 41.36 8.99 41.36 10.09C41.36 11.17 40.73 11.93 39.79 11.93C38.84 11.93 38.19 11.17 38.19 10.09ZM45.68 14.08L48.10 14.08L48.10 3.70L45.68 3.70ZM49.48 10.33C49.48 12.63 51.02 14.17 53.48 14.17C54.87 14.17 56 13.68 56.77 12.84L55.50 11.59C54.99 12.10 54.35 12.36 53.69 12.36C52.79 12.36 52.15 11.86 51.91 10.96L57.22 10.96C57.39 8.20 56.07 6.45 53.41 6.45C51.07 6.45 49.48 7.99 49.48 10.33ZM51.87 9.66C52.02 8.75 52.60 8.13 53.44 8.13C54.31 8.13 54.89 8.74 54.89 9.66Z"></path></g><!----><g data-v-423bf9ae="" id="12856a1d-71f0-4154-aefa-f4bac7d9e165" transform="matrix(1.0206759982638889,0,0,1.0206759982638889,-5.632880028877928,-8.048383071185604)" stroke="none" fill="white"><path d="M54.188 49.575c3.549-3.083 35.059-33.914 35.059-33.914 1.301-1.261 2.621-1.89 3.699-.938 1.053.926.73 2.163-.246 3.23 0 0-35.676 37.602-38.709 41.391-1.246 1.555-1.374 1.883-1.315 3.432.055 1.55.884 28.354.884 28.354.07 1.605.19 2.094.812 2.793.665.654 2.983.957 4.562 1.277 3.377.682 12.59 2.258 12.59 2.258 1.119.045 1.959.369 1.992 1.254.033.861-.658 1.273-1.549 1.289 0 0-14.119-.654-21.966-.654-7.848 0-21.966.654-21.966.654-.892-.016-1.583-.428-1.549-1.289.033-.885.874-1.209 1.992-1.254 0 0 9.213-1.576 12.59-2.258 1.579-.32 3.896-.623 4.561-1.277.622-.699.744-1.188.813-2.793 0 0 .83-26.804.885-28.354.059-1.549-.069-1.877-1.317-3.432-3.035-3.789-38.712-41.391-38.712-41.391-.976-1.067-1.297-2.305-.245-3.23 1.078-.951 2.397-.322 3.698.938 0 0 31.51 30.831 35.059 33.914 1.968 1.71 2.677 2.114 4.189 2.161 1.515-.047 2.224-.451 4.189-2.161zm10.307-30.736c-.824 0-1.951-.084-3.26-.218-.986 4.297-3.918 8.277-6.64 11.207 1.63 1.648 3.614 4.422.211 7.941l-.238.248c-3.598 3.729-7.342 1.764-8.826.327l-.552-.539c-1.485-1.427-3.577-5.1.019-8.823l.241-.247c2.874-2.98 5.345-2.081 7.07-.788a528.008 528.008 0 0 1-1.403 2.939c-.176.365.135.152.135.152l2.721-2.658c2.617-2.98 4.655-6.49 5.325-9.98.734-3.203.395-6.58-1.943-9.83a1.03 1.03 0 1 0-1.674 1.205c1.845 2.562 2.241 5.459 1.687 8.373-8.57-1.17-20.696-3.421-23.026-3.421-5.475 0-15.157 2.087-15.157 2.087 10.178 9.939 29.776 28.756 29.776 28.754.281.246.639.409 1.041.409a1.59 1.59 0 0 0 1.159-.51c3.136-2.831 19.428-18.726 29.596-28.653-1.469.399-10.754 2.025-16.262 2.025z"></path></g><!----></svg>